<?xml version="1.0" encoding="utf-8"?>
<!-- Generator: Adobe Illustrator 18.0.0, SVG Export Plug-In . SVG Version: 6.00 Build 0)  -->
<!DOCTYPE svg PUBLIC "-//W3C//DTD SVG 1.0//EN" "http://www.w3.org/TR/2001/REC-SVG-20010904/DTD/svg10.dtd">
<svg version="1.0" id="Layer_1" xmlns="http://www.w3.org/2000/svg" xmlns:xlink="http://www.w3.org/1999/xlink" x="0px" y="0px"
	 viewBox="0 0 60 45" enable-background="new 0 0 60 45" xml:space="preserve">
<g id="XMLID_46_">
	<path id="XMLID_50_" d="M0.5,22.4C0.5,11.1,6.3,3.2,17,3.2c8.9,0,13.5,5.3,14.5,13l-4.1,0.4c-0.8-6-4.4-9.9-10.6-9.9
		C9.1,6.7,4.7,13,4.7,22.3c0,9,4.1,15.9,12.2,15.9c5.7,0,9.5-3.7,10.7-9.6l3.9,0.6c-1.3,6.9-5.8,12.5-14.6,12.5
		C5.6,41.8,0.5,33.1,0.5,22.4z"/>
	<path id="XMLID_47_" d="M35.7,27.9c0-8.5,4.7-13.6,11.9-13.6c7.2,0,11.9,5.1,11.9,13.6s-4.7,13.6-11.9,13.6
		C40.4,41.5,35.7,36.4,35.7,27.9z M55.7,27.9c0-6.7-3.1-10.4-8-10.4c-5,0-8.1,3.7-8.1,10.4s3.1,10.4,8.1,10.4
		C52.6,38.4,55.7,34.7,55.7,27.9z"/>
</g>
</svg>
