<?xml version="1.0" encoding="utf-8"?>
<!-- Generator: Adobe Illustrator 18.0.0, SVG Export Plug-In . SVG Version: 6.00 Build 0)  -->
<!DOCTYPE svg PUBLIC "-//W3C//DTD SVG 1.0//EN" "http://www.w3.org/TR/2001/REC-SVG-20010904/DTD/svg10.dtd">
<svg version="1.0" id="Layer_1" xmlns="http://www.w3.org/2000/svg" xmlns:xlink="http://www.w3.org/1999/xlink" x="0px" y="0px"
	 viewBox="0 0 270 50" enable-background="new 0 0 270 50" xml:space="preserve">
<g id="XMLID_1_">
	<path id="XMLID_44_" d="M1.7,6.3h5.7l10.7,29.5c0.6,1.6,0.7,2,0.9,3.2h0.1c0.2-1.2,0.4-1.6,0.9-3.2L30.7,6.3h5.7v36.9h-3.7V13.7
		c0-1.3,0.1-2.5,0.2-3.7h-0.2c-0.2,0.8-0.6,2.7-1,3.9L21,43.1h-3.9L6.5,13.9c-0.5-1.2-0.9-3.1-1.1-3.9H5.3c0.1,1.1,0.2,2.3,0.2,3.7
		v29.4H1.7V6.3z"/>
	<path id="XMLID_23_" d="M43.2,30.1c0-8.5,4.7-13.6,11.9-13.6c7.2,0,11.9,5.1,11.9,13.6s-4.7,13.6-11.9,13.6
		C47.9,43.7,43.2,38.6,43.2,30.1z M63.1,30.1c0-6.7-3.1-10.4-8-10.4c-5,0-8.1,3.7-8.1,10.4s3.1,10.4,8.1,10.4
		C60.1,40.6,63.1,36.9,63.1,30.1z"/>
	<path id="XMLID_19_" d="M73.2,17.2h3.4v5.7c1.6-4.3,4.6-6.4,8.9-6.4c5.8,0,8.8,3.6,8.8,10.6v16h-3.6V27.3c0-5-2.2-7.6-6.3-7.6
		c-4.7,0-7.6,3.7-7.6,9.8v13.7h-3.6V17.2z"/>
	<path id="XMLID_16_" d="M101.2,33.6V17.2h3.6v16.1c0,5.1,2.4,7.4,5.9,7.4c4.7,0,7.6-4,7.6-9.3V17.2h3.6v26h-3.4v-5.3
		c-1.2,3.4-4.5,6-8.4,6C103.6,43.7,101.2,39.8,101.2,33.6z"/>
	<path id="XMLID_14_" d="M133.3,17.2v5c1.3-3.7,4-5.8,7.7-5.8c3.7,0,6.4,2,7.5,5.7c1.6-3.7,4.3-5.7,8-5.7c5.1,0,8,3.6,8,9.7v17h-3.6
		V26.5c0-4.4-1.9-6.8-5.4-6.8c-3.9,0-6.4,2.9-6.4,7.7v15.8h-3.6V26.2c0-4.2-2-6.6-5.4-6.6c-3.9,0-6.5,3.2-6.5,8.3v15.2h-3.6v-26
		H133.3z"/>
	<path id="XMLID_10_" d="M192.6,31.1h-18.8c0.1,5.9,3.3,9.4,8.3,9.4c3.6,0,6.2-2,7.3-5.6l3.1,1.2c-1.6,4.8-5.4,7.5-10.6,7.5
		c-7.4,0-11.7-4.7-11.7-13.4c0-8.5,4.4-13.8,11.5-13.8c7,0,11,4.2,11,12V31.1z M189,27.6c0-5.3-2.7-8.2-7.3-8.2
		c-4.8,0-7.7,3.3-7.8,8.7H189V27.6z"/>
	<path id="XMLID_7_" d="M199,17.2h3.4v5.7c1.6-4.3,4.6-6.4,8.9-6.4c5.8,0,8.8,3.6,8.8,10.6v16h-3.6V27.3c0-5-2.2-7.6-6.3-7.6
		c-4.7,0-7.6,3.7-7.6,9.8v13.7H199V17.2z"/>
	<path id="XMLID_5_" d="M225.1,17.2h4.8v-6.9l3.6-1.6v8.4h6.7v3h-6.7v15.6c0,3.1,1.4,4.4,4.1,4.4c1,0,1.8-0.2,2.6-0.4v3.3
		c-1.1,0.3-2.1,0.5-3.6,0.5c-5,0-6.7-3.1-6.7-7.7V20.2h-4.8V17.2z"/>
	<path id="XMLID_2_" d="M244.4,30.1c0-8.5,4.7-13.6,11.9-13.6c7.2,0,11.9,5.1,11.9,13.6s-4.7,13.6-11.9,13.6
		C249.2,43.7,244.4,38.6,244.4,30.1z M264.4,30.1c0-6.7-3.1-10.4-8-10.4c-5,0-8.1,3.7-8.1,10.4s3.1,10.4,8.1,10.4
		C261.4,40.6,264.4,36.9,264.4,30.1z"/>
</g>
</svg>
